<?xml version='1.0' encoding='UTF-8'?>
<svg viewBox="-2 -4 32 32" xmlns="http://www.w3.org/2000/svg" xmlns:xlink="http://www.w3.org/1999/xlink">
  <g id="Layer_1" transform="translate(-2, -4)" style="enable-background:new 0 0 32 32">
    <g id="Box">
      <polygon points="18,4 10,4 2,12 10,12  " fill="#727272" class="Black" />
    </g>
  </g>
  <g id="Layer_1" transform="translate(-2, -4)" style="enable-background:new 0 0 32 32">
    <g id="Box">
      <rect x="2" y="14" width="20" height="14" rx="0" ry="0" fill="#727272" class="Black" />
    </g>
  </g>
  <g id="Layer_1" transform="translate(-2, -4)" style="enable-background:new 0 0 32 32">
    <g id="Box">
      <polygon points="24,28 30,22 30,6.8 24,12.8  " fill="#727272" class="Black" />
    </g>
  </g>
  <g id="Layer_1" transform="translate(-2, -4)" style="enable-background:new 0 0 32 32">
    <g id="Box">
      <polygon points="21,4 13,12 21.9,12 29.9,4  " fill="#727272" class="Black" />
    </g>
  </g>
  <g id="Layer_1" transform="translate(14, 12)" style="enable-background:new 0 0 16 16">
    <g id="Add_1_">
      <path d="M15, 6L10, 6L10, 1C10, 0.4 9.5, 0 9, 0L7, 0C6.5, 0 6, 0.4 6, 1L6, 6L1, 6C0.5, 6 0, 6.4 0, 7L0, 9C0, 9.6 0.5, 10 1, 10L6, 10L6, 15C6, 15.6 6.5, 16 7, 16L9, 16C9.5, 16 10, 15.6 10, 15L10, 10L15, 10C15.5, 10 16, 9.6 16, 9L16, 7C16, 6.4 15.5, 6 15, 6z" fill="#039C23" class="Green" />
    </g>
  </g>
</svg>